<?xml version="1.0" encoding="utf-8"?>
<!-- Generator: Adobe Illustrator 17.1.0, SVG Export Plug-In . SVG Version: 6.00 Build 0)  -->
<!DOCTYPE svg PUBLIC "-//W3C//DTD SVG 1.1//EN" "http://www.w3.org/Graphics/SVG/1.1/DTD/svg11.dtd">
<svg version="1.1" id="Layer_1" xmlns:ev="http://www.w3.org/2001/xml-events"
	 xmlns="http://www.w3.org/2000/svg" xmlns:xlink="http://www.w3.org/1999/xlink" x="0px" y="0px" viewBox="0 0 29 28"
	 enable-background="new 0 0 29 28" xml:space="preserve">
<path fill="#F21C25" d="M14.877,22.398c0-0.234-0.025-0.461-0.076-0.679c-0.051-0.217-0.105-0.418-0.161-0.603
	c-0.057-0.184-0.156-0.377-0.298-0.577c-0.141-0.202-0.26-0.372-0.356-0.512c-0.096-0.139-0.246-0.304-0.45-0.494
	c-0.204-0.19-0.36-0.332-0.467-0.427c-0.108-0.095-0.289-0.237-0.544-0.427c-0.255-0.19-0.43-0.318-0.526-0.385
	c-0.096-0.068-0.283-0.196-0.561-0.386c-0.277-0.19-0.45-0.307-0.518-0.352c-0.192-0.022-0.475-0.033-0.849-0.033
	c-0.611,0-1.211,0.039-1.8,0.117c-0.589,0.078-1.2,0.218-1.834,0.419s-1.189,0.458-1.665,0.77c-0.475,0.313-0.866,0.732-1.171,1.257
	c-0.306,0.525-0.459,1.122-0.459,1.792c0,0.76,0.201,1.439,0.603,2.036c0.402,0.598,0.928,1.067,1.579,1.407
	c0.652,0.341,1.334,0.595,2.047,0.763c0.713,0.167,1.432,0.251,2.157,0.251c0.668,0,1.305-0.07,1.91-0.21
	c0.606-0.139,1.175-0.357,1.707-0.653c0.532-0.296,0.954-0.706,1.266-1.231C14.722,23.715,14.877,23.101,14.877,22.398z
	 M12.839,7.957c0-0.67-0.093-1.382-0.28-2.136c-0.186-0.754-0.452-1.482-0.798-2.186c-0.345-0.704-0.821-1.285-1.426-1.743
	c-0.606-0.457-1.283-0.686-2.03-0.686c-1.053,0-1.868,0.385-2.445,1.155C5.282,3.132,4.993,4.054,4.993,5.126
	c0,0.525,0.065,1.077,0.196,1.659c0.13,0.58,0.331,1.161,0.602,1.742c0.272,0.58,0.589,1.103,0.952,1.566
	c0.362,0.464,0.803,0.84,1.324,1.131c0.521,0.29,1.07,0.436,1.648,0.436c1.098,0,1.893-0.339,2.386-1.014
	C12.593,9.97,12.839,9.074,12.839,7.957z M10.614,0h7.422l-2.292,1.323h-2.293c0.804,0.503,1.426,1.206,1.868,2.111
	c0.442,0.905,0.662,1.848,0.662,2.831c0,0.827-0.13,1.561-0.39,2.203c-0.261,0.642-0.578,1.159-0.951,1.55
	c-0.374,0.391-0.747,0.751-1.121,1.08c-0.374,0.33-0.691,0.671-0.951,1.022c-0.261,0.352-0.391,0.729-0.391,1.131
	c0,0.29,0.093,0.575,0.281,0.854c0.186,0.279,0.429,0.547,0.729,0.804c0.301,0.257,0.632,0.525,0.994,0.805
	c0.362,0.279,0.725,0.589,1.087,0.93c0.362,0.34,0.694,0.709,0.994,1.105c0.299,0.397,0.543,0.871,0.73,1.424s0.28,1.148,0.28,1.784
	c0,1.787-0.793,3.362-2.378,4.725c-1.721,1.463-4.098,2.194-7.132,2.194c-0.668,0-1.345-0.056-2.03-0.168
	c-0.685-0.111-1.376-0.298-2.072-0.561c-0.696-0.262-1.31-0.586-1.843-0.971c-0.532-0.385-0.968-0.883-1.307-1.491
	C0.17,24.076,0,23.398,0,22.649c0-0.681,0.21-1.435,0.629-2.261c0.362-0.715,0.906-1.332,1.63-1.852
	c0.724-0.519,1.545-0.916,2.463-1.189c0.917-0.274,1.794-0.475,2.632-0.603c0.838-0.129,1.687-0.204,2.547-0.226
	c-0.724-0.927-1.086-1.759-1.086-2.496c0-0.134,0.011-0.266,0.033-0.394C8.871,13.5,8.9,13.391,8.933,13.301
	c0.034-0.089,0.08-0.209,0.136-0.36c0.057-0.151,0.097-0.271,0.119-0.36c-0.453,0.056-0.849,0.084-1.189,0.084
	c-1.687,0-3.133-0.548-4.339-1.642C2.454,9.928,1.851,8.554,1.851,6.901c0-1.563,0.538-2.962,1.614-4.196
	c1.075-1.234,2.4-2.024,3.974-2.37C8.503,0.111,9.562,0,10.614,0z M28.26,4.288v2.145h-4.347v4.288h-2.175V6.433h-4.347V4.288h4.347
	V0h2.175v4.288H28.26z"/>
</svg>
