<?xml version="1.0" encoding="utf-8"?>
<!-- Generator: Adobe Illustrator 17.1.0, SVG Export Plug-In . SVG Version: 6.00 Build 0)  -->
<!DOCTYPE svg PUBLIC "-//W3C//DTD SVG 1.1//EN" "http://www.w3.org/Graphics/SVG/1.1/DTD/svg11.dtd">
<svg version="1.1" id="Layer_1" xmlns:ev="http://www.w3.org/2001/xml-events"
	 xmlns="http://www.w3.org/2000/svg" xmlns:xlink="http://www.w3.org/1999/xlink" x="0px" y="0px" viewBox="0 0 29 28"
	 enable-background="new 0 0 29 28" xml:space="preserve">
<path fill="#F21C25" d="M6.4,3.02c0,1.668-1.233,3.019-3.26,3.019C1.233,6.039,0,4.688,0,3.02C0,1.312,1.274,0,3.22,0
	C5.167,0,6.36,1.312,6.4,3.02z M0.16,27.852V8.425h6.042v19.427H0.16z M9.817,14.622c0-2.424-0.079-4.449-0.16-6.197h5.247
	l0.28,2.702h0.119c0.794-1.273,2.743-3.139,6.002-3.139c3.974,0,6.955,2.662,6.955,8.383v11.483h-6.041V17.087
	c0-2.503-0.876-4.212-3.062-4.212c-1.669,0-2.661,1.152-3.099,2.264c-0.16,0.397-0.199,0.953-0.199,1.51v11.205H9.817V14.622z"/>
</svg>
