<?xml version="1.0" encoding="utf-8"?>
<!-- Generator: Adobe Illustrator 17.1.0, SVG Export Plug-In . SVG Version: 6.00 Build 0)  -->
<!DOCTYPE svg PUBLIC "-//W3C//DTD SVG 1.1//EN" "http://www.w3.org/Graphics/SVG/1.1/DTD/svg11.dtd">
<svg version="1.1" id="Layer_1" xmlns="http://www.w3.org/2000/svg" xmlns:xlink="http://www.w3.org/1999/xlink" x="0px" y="0px"
	 viewBox="0 0 195.734 58.852" enable-background="new 0 0 195.734 58.852" xml:space="preserve">
<circle fill="#FFFFFF" cx="29.47" cy="28.502" r="22.329"/>
<g>
	<path fill="#333333" d="M75.515,25.888c-3.002,0-4.77-1.446-4.77-3.644c0-2.308,1.715-3.593,5.092-3.754v-3.697
		c0-4.126,1.339-6.165,4.234-6.165c2.84,0,4.18,2.039,4.18,6.165v3.697h0.751c3.376,0,5.306,1.446,5.306,3.754
		c0,2.358-1.769,3.644-5.36,3.644h-0.697v14.953c0,4.129-1.286,6.165-4.18,6.165c-2.895,0-4.234-2.036-4.234-6.165V25.888H75.515z"
		/>
	<path fill="#333333" d="M104.619,17.258c8.363,0,14.256,6.326,14.256,15.117c0,8.787-5.893,15.113-14.256,15.113
		c-8.308,0-14.31-6.326-14.31-15.113C90.309,23.584,96.311,17.258,104.619,17.258z M104.619,39.447c3.215,0,5.574-2.786,5.574-7.184
		c0-4.286-2.467-7.072-5.574-7.072c-3.107,0-5.573,2.679-5.573,7.072C99.045,36.715,101.404,39.447,104.619,39.447z"/>
	<path fill="#333333" d="M133.617,47.06c-6.646,0-12.223-6.111-12.223-14.685c0-8.577,5.951-14.957,13.133-14.957
		c2.895,0,5.039,0.964,6.752,3c0.965-1.768,2.465-2.679,3.754-2.679c2.895,0,4.234,1.983,4.234,6.112v16.989
		c0,5.094-0.322,8.951-1.984,11.685c-2.465,4.129-6.859,6.326-12.863,6.326c-7.717,0-12.381-2.84-12.381-6.166
		c0-2.143,1.555-3.697,3.645-3.697c2.09,0,4.609,2.251,9.059,2.251c4.127,0,6.592-2.519,6.592-7.126
		c0-0.325-0.055-0.647-0.055-1.022C139.459,45.721,136.939,47.06,133.617,47.06z M135.652,39.447c3.164,0,5.574-2.786,5.574-7.072
		c0-4.237-2.465-6.916-5.574-6.916c-3.109,0-5.521,2.679-5.521,6.916C130.13,36.715,132.488,39.447,135.652,39.447z"/>
	<path fill="#333333" d="M165.613,47.06c-6.648,0-12.221-6.111-12.221-14.685c0-8.577,5.947-14.957,13.131-14.957
		c2.895,0,5.041,0.964,6.756,3c0.965-1.768,2.465-2.679,3.75-2.679c2.895,0,4.234,1.983,4.234,6.112v16.989
		c0,5.094-0.322,8.951-1.982,11.685c-2.465,4.129-6.859,6.326-12.863,6.326c-7.721,0-12.381-2.84-12.381-6.166
		c0-2.143,1.553-3.697,3.643-3.697c2.092,0,4.611,2.251,9.059,2.251c4.127,0,6.594-2.519,6.594-7.126
		c0-0.325-0.053-0.647-0.053-1.022C171.457,45.721,168.935,47.06,165.613,47.06z M167.65,39.447c3.16,0,5.576-2.786,5.576-7.072
		c0-4.237-2.469-6.916-5.576-6.916c-3.109,0-5.52,2.679-5.52,6.916C162.13,36.715,164.488,39.447,167.65,39.447z"/>
	<path fill="#333333" d="M191.554,5.734c2.84,0,4.18,2.036,4.18,6.166v28.941c0,4.129-1.287,6.165-4.18,6.165
		c-2.895,0-4.234-2.036-4.234-6.165V11.9C187.32,7.77,188.66,5.734,191.554,5.734z"/>
</g>
<path fill="#E11B22" d="M29.014,0C12.989,0,0,12.987,0,29.014C0,45.04,12.989,58.027,29.014,58.027S58.028,45.04,58.028,29.014
	C58.028,12.987,45.039,0,29.014,0z M26.978,11.294h4.074v20.209h-4.074V11.294z M29.014,43.894c-7.829,0-14.179-6.352-14.179-14.181
	c0-6.535,4.419-12.033,10.434-13.68v4.12c-3.819,1.498-6.521,5.212-6.521,9.56c0,5.669,4.598,10.268,10.267,10.268
	c5.669,0,10.268-4.599,10.268-10.268c0-4.348-2.704-8.061-6.518-9.56v-4.12c6.01,1.647,10.431,7.144,10.431,13.68
	C43.194,37.542,36.845,43.894,29.014,43.894z"/>
</svg>
