<?xml version="1.0" encoding="utf-8"?>
<!-- Generator: Adobe Illustrator 17.1.0, SVG Export Plug-In . SVG Version: 6.00 Build 0)  -->
<!DOCTYPE svg PUBLIC "-//W3C//DTD SVG 1.1//EN" "http://www.w3.org/Graphics/SVG/1.1/DTD/svg11.dtd">
<svg version="1.1" id="Layer_1" xmlns:ev="http://www.w3.org/2001/xml-events"
	 xmlns="http://www.w3.org/2000/svg" xmlns:xlink="http://www.w3.org/1999/xlink" x="0px" y="0px" viewBox="0 0 29 23"
	 enable-background="new 0 0 29 23" xml:space="preserve">
<path fill="#F21C25" d="M28.26,2.682c-1.04,0.455-2.157,0.762-3.33,0.9c1.197-0.707,2.116-1.828,2.549-3.163
	c-1.12,0.655-2.361,1.131-3.682,1.387C22.74,0.695,21.233,0,19.565,0c-3.201,0-5.797,2.561-5.797,5.718
	c0,0.449,0.051,0.885,0.15,1.304C9.099,6.783,4.827,4.507,1.968,1.047c-0.5,0.845-0.785,1.827-0.785,2.875
	c0,1.984,1.023,3.734,2.579,4.759C2.811,8.652,1.917,8.395,1.136,7.966C1.135,7.99,1.135,8.014,1.135,8.038
	c0,2.77,1.999,5.081,4.651,5.607c-0.486,0.13-0.999,0.2-1.527,0.2c-0.374,0-0.737-0.035-1.091-0.102
	c0.738,2.271,2.879,3.925,5.416,3.97c-1.985,1.534-4.484,2.449-7.201,2.449c-0.468,0-0.929-0.027-1.383-0.081
	c2.566,1.623,5.614,2.57,8.887,2.57c10.665,0,16.497-8.713,16.497-16.27c0-0.248-0.006-0.494-0.017-0.739
	C26.5,4.836,27.483,3.829,28.26,2.682z"/>
</svg>
